<?xml version="1.0" encoding="UTF-8" standalone="no"?>
<!DOCTYPE svg PUBLIC "-//W3C//DTD SVG 1.1//EN"
 "http://www.w3.org/Graphics/SVG/1.1/DTD/svg11.dtd">
<!-- Generated by graphviz version 13.1.0 (20250701.0955)
 -->
<!-- Title: interface/driver_ina219_interface.h Pages: 1 -->
<svg width="608pt" height="176pt"
 viewBox="0.00 0.00 608.00 176.00" xmlns="http://www.w3.org/2000/svg" xmlns:xlink="http://www.w3.org/1999/xlink">
<g id="graph0" class="graph" transform="scale(1 1) rotate(0) translate(4 172)">
<title>interface/driver_ina219_interface.h</title>
<!-- Node1 -->
<g id="Node000001" class="node">
<title>Node1</title>
<g id="a_Node000001"><a xlink:title="driver ina219 interface header file">
<polygon fill="#999999" stroke="#666666" points="377.88,-168 263.62,-168 263.62,-136 377.88,-136 377.88,-168"/>
<text xml:space="preserve" text-anchor="start" x="271.62" y="-154.5" font-family="Helvetica,sans-Serif" font-size="10.00">interface/driver_ina219</text>
<text xml:space="preserve" text-anchor="middle" x="320.75" y="-142.5" font-family="Helvetica,sans-Serif" font-size="10.00">_interface.h</text>
</a>
</g>
</g>
<!-- Node2 -->
<g id="Node000002" class="node">
<title>Node2</title>
<g id="a_Node000002"><a xlink:href="driver__ina219__basic_8h.html" target="_top" xlink:title=" ">
<polygon fill="white" stroke="#666666" points="113.5,-100 0,-100 0,-68 113.5,-68 113.5,-100"/>
<text xml:space="preserve" text-anchor="start" x="8" y="-86.5" font-family="Helvetica,sans-Serif" font-size="10.00">example/driver_ina219</text>
<text xml:space="preserve" text-anchor="middle" x="56.75" y="-74.5" font-family="Helvetica,sans-Serif" font-size="10.00">_basic.h</text>
</a>
</g>
</g>
<!-- Node1&#45;&gt;Node2 -->
<g id="edge1_Node000001_Node000002" class="edge">
<title>Node1&#45;&gt;Node2</title>
<g id="a_edge1_Node000001_Node000002"><a xlink:title=" ">
<path fill="none" stroke="#63b8ff" d="M252.2,-133.86C209.19,-123.11 154.4,-109.41 113.78,-99.26"/>
<polygon fill="#63b8ff" stroke="#63b8ff" points="251.12,-137.2 261.67,-136.23 252.82,-130.41 251.12,-137.2"/>
</a>
</g>
</g>
<!-- Node4 -->
<g id="Node000004" class="node">
<title>Node4</title>
<g id="a_Node000004"><a xlink:href="driver__ina219__shot_8h.html" target="_top" xlink:title=" ">
<polygon fill="white" stroke="#666666" points="245.5,-100 132,-100 132,-68 245.5,-68 245.5,-100"/>
<text xml:space="preserve" text-anchor="start" x="140" y="-86.5" font-family="Helvetica,sans-Serif" font-size="10.00">example/driver_ina219</text>
<text xml:space="preserve" text-anchor="middle" x="188.75" y="-74.5" font-family="Helvetica,sans-Serif" font-size="10.00">_shot.h</text>
</a>
</g>
</g>
<!-- Node1&#45;&gt;Node4 -->
<g id="edge3_Node000001_Node000004" class="edge">
<title>Node1&#45;&gt;Node4</title>
<g id="a_edge3_Node000001_Node000004"><a xlink:title=" ">
<path fill="none" stroke="#63b8ff" d="M279.7,-130.47C260.25,-120.75 237.43,-109.34 219.5,-100.38"/>
<polygon fill="#63b8ff" stroke="#63b8ff" points="277.94,-133.51 288.45,-134.85 281.07,-127.25 277.94,-133.51"/>
</a>
</g>
</g>
<!-- Node6 -->
<g id="Node000006" class="node">
<title>Node6</title>
<g id="a_Node000006"><a xlink:href="driver__ina219__interface__template_8c.html" target="_top" xlink:title="driver ina219 interface template source file">
<polygon fill="white" stroke="#666666" points="377.88,-100 263.62,-100 263.62,-68 377.88,-68 377.88,-100"/>
<text xml:space="preserve" text-anchor="start" x="271.62" y="-86.5" font-family="Helvetica,sans-Serif" font-size="10.00">interface/driver_ina219</text>
<text xml:space="preserve" text-anchor="middle" x="320.75" y="-74.5" font-family="Helvetica,sans-Serif" font-size="10.00">_interface_template.c</text>
</a>
</g>
</g>
<!-- Node1&#45;&gt;Node6 -->
<g id="edge5_Node000001_Node000006" class="edge">
<title>Node1&#45;&gt;Node6</title>
<g id="a_edge5_Node000001_Node000006"><a xlink:title=" ">
<path fill="none" stroke="#63b8ff" d="M320.75,-124.31C320.75,-116.12 320.75,-107.38 320.75,-100.22"/>
<polygon fill="#63b8ff" stroke="#63b8ff" points="317.25,-124.18 320.75,-134.18 324.25,-124.18 317.25,-124.18"/>
</a>
</g>
</g>
<!-- Node7 -->
<g id="Node000007" class="node">
<title>Node7</title>
<g id="a_Node000007"><a xlink:href="driver__ina219__read__test_8h.html" target="_top" xlink:title=" ">
<polygon fill="white" stroke="#666666" points="489.38,-100 396.12,-100 396.12,-68 489.38,-68 489.38,-100"/>
<text xml:space="preserve" text-anchor="start" x="404.12" y="-86.5" font-family="Helvetica,sans-Serif" font-size="10.00">test/driver_ina219</text>
<text xml:space="preserve" text-anchor="middle" x="442.75" y="-74.5" font-family="Helvetica,sans-Serif" font-size="10.00">_read_test.h</text>
</a>
</g>
</g>
<!-- Node1&#45;&gt;Node7 -->
<g id="edge6_Node000001_Node000007" class="edge">
<title>Node1&#45;&gt;Node7</title>
<g id="a_edge6_Node000001_Node000007"><a xlink:title=" ">
<path fill="none" stroke="#63b8ff" d="M359.44,-130.07C377.25,-120.44 397.99,-109.21 414.33,-100.38"/>
<polygon fill="#63b8ff" stroke="#63b8ff" points="357.81,-126.97 350.68,-134.81 361.15,-133.13 357.81,-126.97"/>
</a>
</g>
</g>
<!-- Node9 -->
<g id="Node000009" class="node">
<title>Node9</title>
<g id="a_Node000009"><a xlink:href="driver__ina219__register__test_8h.html" target="_top" xlink:title=" ">
<polygon fill="white" stroke="#666666" points="600.38,-100 507.12,-100 507.12,-68 600.38,-68 600.38,-100"/>
<text xml:space="preserve" text-anchor="start" x="515.12" y="-86.5" font-family="Helvetica,sans-Serif" font-size="10.00">test/driver_ina219</text>
<text xml:space="preserve" text-anchor="middle" x="553.75" y="-74.5" font-family="Helvetica,sans-Serif" font-size="10.00">_register_test.h</text>
</a>
</g>
</g>
<!-- Node1&#45;&gt;Node9 -->
<g id="edge8_Node000001_Node000009" class="edge">
<title>Node1&#45;&gt;Node9</title>
<g id="a_edge8_Node000001_Node000009"><a xlink:title=" ">
<path fill="none" stroke="#63b8ff" d="M386.46,-132.39C424.84,-121.52 472.36,-108.05 506.94,-98.26"/>
<polygon fill="#63b8ff" stroke="#63b8ff" points="385.5,-129.02 376.83,-135.11 387.41,-135.76 385.5,-129.02"/>
</a>
</g>
</g>
<!-- Node3 -->
<g id="Node000003" class="node">
<title>Node3</title>
<g id="a_Node000003"><a xlink:href="driver__ina219__basic_8c.html" target="_top" xlink:title="driver ina219 basic source file">
<polygon fill="white" stroke="#666666" points="113.5,-32 0,-32 0,0 113.5,0 113.5,-32"/>
<text xml:space="preserve" text-anchor="start" x="8" y="-18.5" font-family="Helvetica,sans-Serif" font-size="10.00">example/driver_ina219</text>
<text xml:space="preserve" text-anchor="middle" x="56.75" y="-6.5" font-family="Helvetica,sans-Serif" font-size="10.00">_basic.c</text>
</a>
</g>
</g>
<!-- Node2&#45;&gt;Node3 -->
<g id="edge2_Node000002_Node000003" class="edge">
<title>Node2&#45;&gt;Node3</title>
<g id="a_edge2_Node000002_Node000003"><a xlink:title=" ">
<path fill="none" stroke="#63b8ff" d="M56.75,-56.31C56.75,-48.12 56.75,-39.38 56.75,-32.22"/>
<polygon fill="#63b8ff" stroke="#63b8ff" points="53.25,-56.18 56.75,-66.18 60.25,-56.18 53.25,-56.18"/>
</a>
</g>
</g>
<!-- Node5 -->
<g id="Node000005" class="node">
<title>Node5</title>
<g id="a_Node000005"><a xlink:href="driver__ina219__shot_8c.html" target="_top" xlink:title="driver ina219 shot source file">
<polygon fill="white" stroke="#666666" points="245.5,-32 132,-32 132,0 245.5,0 245.5,-32"/>
<text xml:space="preserve" text-anchor="start" x="140" y="-18.5" font-family="Helvetica,sans-Serif" font-size="10.00">example/driver_ina219</text>
<text xml:space="preserve" text-anchor="middle" x="188.75" y="-6.5" font-family="Helvetica,sans-Serif" font-size="10.00">_shot.c</text>
</a>
</g>
</g>
<!-- Node4&#45;&gt;Node5 -->
<g id="edge4_Node000004_Node000005" class="edge">
<title>Node4&#45;&gt;Node5</title>
<g id="a_edge4_Node000004_Node000005"><a xlink:title=" ">
<path fill="none" stroke="#63b8ff" d="M188.75,-56.31C188.75,-48.12 188.75,-39.38 188.75,-32.22"/>
<polygon fill="#63b8ff" stroke="#63b8ff" points="185.25,-56.18 188.75,-66.18 192.25,-56.18 185.25,-56.18"/>
</a>
</g>
</g>
<!-- Node8 -->
<g id="Node000008" class="node">
<title>Node8</title>
<g id="a_Node000008"><a xlink:href="driver__ina219__read__test_8c.html" target="_top" xlink:title="driver ina219 read test source file">
<polygon fill="white" stroke="#666666" points="489.38,-32 396.12,-32 396.12,0 489.38,0 489.38,-32"/>
<text xml:space="preserve" text-anchor="start" x="404.12" y="-18.5" font-family="Helvetica,sans-Serif" font-size="10.00">test/driver_ina219</text>
<text xml:space="preserve" text-anchor="middle" x="442.75" y="-6.5" font-family="Helvetica,sans-Serif" font-size="10.00">_read_test.c</text>
</a>
</g>
</g>
<!-- Node7&#45;&gt;Node8 -->
<g id="edge7_Node000007_Node000008" class="edge">
<title>Node7&#45;&gt;Node8</title>
<g id="a_edge7_Node000007_Node000008"><a xlink:title=" ">
<path fill="none" stroke="#63b8ff" d="M442.75,-56.31C442.75,-48.12 442.75,-39.38 442.75,-32.22"/>
<polygon fill="#63b8ff" stroke="#63b8ff" points="439.25,-56.18 442.75,-66.18 446.25,-56.18 439.25,-56.18"/>
</a>
</g>
</g>
<!-- Node10 -->
<g id="Node000010" class="node">
<title>Node10</title>
<g id="a_Node000010"><a xlink:href="driver__ina219__register__test_8c.html" target="_top" xlink:title="driver ina219 register test source file">
<polygon fill="white" stroke="#666666" points="600.38,-32 507.12,-32 507.12,0 600.38,0 600.38,-32"/>
<text xml:space="preserve" text-anchor="start" x="515.12" y="-18.5" font-family="Helvetica,sans-Serif" font-size="10.00">test/driver_ina219</text>
<text xml:space="preserve" text-anchor="middle" x="553.75" y="-6.5" font-family="Helvetica,sans-Serif" font-size="10.00">_register_test.c</text>
</a>
</g>
</g>
<!-- Node9&#45;&gt;Node10 -->
<g id="edge9_Node000009_Node000010" class="edge">
<title>Node9&#45;&gt;Node10</title>
<g id="a_edge9_Node000009_Node000010"><a xlink:title=" ">
<path fill="none" stroke="#63b8ff" d="M553.75,-56.31C553.75,-48.12 553.75,-39.38 553.75,-32.22"/>
<polygon fill="#63b8ff" stroke="#63b8ff" points="550.25,-56.18 553.75,-66.18 557.25,-56.18 550.25,-56.18"/>
</a>
</g>
</g>
</g>
</svg>
