<?xml version="1.0" encoding="UTF-8" standalone="no"?>
<!DOCTYPE svg PUBLIC "-//W3C//DTD SVG 1.1//EN"
 "http://www.w3.org/Graphics/SVG/1.1/DTD/svg11.dtd">
<!-- Generated by graphviz version 13.1.0 (20250701.0955)
 -->
<!-- Title: ina219_basic_init Pages: 1 -->
<svg width="273pt" height="708pt"
 viewBox="0.00 0.00 273.00 708.00" xmlns="http://www.w3.org/2000/svg" xmlns:xlink="http://www.w3.org/1999/xlink">
<g id="graph0" class="graph" transform="scale(1 1) rotate(0) translate(4 704)">
<title>ina219_basic_init</title>
<!-- Node1 -->
<g id="Node000001" class="node">
<title>Node1</title>
<g id="a_Node000001"><a xlink:title="basic example init">
<polygon fill="#999999" stroke="#666666" points="91,-366 0,-366 0,-346 91,-346 91,-366"/>
<text xml:space="preserve" text-anchor="middle" x="45.5" y="-352.5" font-family="Helvetica,sans-Serif" font-size="10.00">ina219_basic_init</text>
</a>
</g>
</g>
<!-- Node2 -->
<g id="Node000002" class="node">
<title>Node2</title>
<g id="a_Node000002"><a xlink:href="group__ina219__basic__driver.html#gab601b31d458b5ee7ba0229e7a4126fe9" target="_top" xlink:title="calculate the calibration">
<polygon fill="white" stroke="#666666" points="265.25,-700 127,-700 127,-680 265.25,-680 265.25,-700"/>
<text xml:space="preserve" text-anchor="middle" x="196.12" y="-686.5" font-family="Helvetica,sans-Serif" font-size="10.00">ina219_calculate_calibration</text>
</a>
</g>
</g>
<!-- Node1&#45;&gt;Node2 -->
<g id="edge1_Node000001_Node000002" class="edge">
<title>Node1&#45;&gt;Node2</title>
<g id="a_edge1_Node000001_Node000002"><a xlink:title=" ">
<path fill="none" stroke="#63b8ff" d="M47.76,-366.41C53.93,-415.75 82.49,-625.51 127,-671 127.73,-671.75 128.49,-672.47 129.28,-673.16"/>
<polygon fill="#63b8ff" stroke="#63b8ff" points="127.03,-675.86 137.24,-678.7 131.03,-670.12 127.03,-675.86"/>
</a>
</g>
</g>
<!-- Node3 -->
<g id="Node000003" class="node">
<title>Node3</title>
<g id="a_Node000003"><a xlink:href="group__ina219__basic__driver.html#ga981f9175a85d77eda3e8895ba127fc0c" target="_top" xlink:title="close the chip">
<polygon fill="white" stroke="#666666" points="232.62,-662 159.62,-662 159.62,-642 232.62,-642 232.62,-662"/>
<text xml:space="preserve" text-anchor="middle" x="196.12" y="-648.5" font-family="Helvetica,sans-Serif" font-size="10.00">ina219_deinit</text>
</a>
</g>
</g>
<!-- Node1&#45;&gt;Node3 -->
<g id="edge2_Node000001_Node000003" class="edge">
<title>Node1&#45;&gt;Node3</title>
<g id="a_edge2_Node000001_Node000003"><a xlink:title=" ">
<path fill="none" stroke="#63b8ff" d="M46.18,-366.3C45.52,-406.64 48.67,-555.52 127,-633 132.94,-638.88 140.54,-642.97 148.49,-645.82"/>
<polygon fill="#63b8ff" stroke="#63b8ff" points="147.4,-649.15 157.98,-648.55 149.34,-642.42 147.4,-649.15"/>
</a>
</g>
</g>
<!-- Node4 -->
<g id="Node000004" class="node">
<title>Node4</title>
<g id="a_Node000004"><a xlink:href="group__ina219__basic__driver.html#gab71760c2cdbe731a214cbce4feb065ba" target="_top" xlink:title="initialize the chip">
<polygon fill="white" stroke="#666666" points="227.38,-624 164.88,-624 164.88,-604 227.38,-604 227.38,-624"/>
<text xml:space="preserve" text-anchor="middle" x="196.12" y="-610.5" font-family="Helvetica,sans-Serif" font-size="10.00">ina219_init</text>
</a>
</g>
</g>
<!-- Node1&#45;&gt;Node4 -->
<g id="edge3_Node000001_Node000004" class="edge">
<title>Node1&#45;&gt;Node4</title>
<g id="a_edge3_Node000001_Node000004"><a xlink:title=" ">
<path fill="none" stroke="#63b8ff" d="M46.74,-366.4C48.16,-403.35 58.06,-529.62 127,-595 134.24,-601.86 143.74,-606.28 153.34,-609.12"/>
<polygon fill="#63b8ff" stroke="#63b8ff" points="152.52,-612.52 163.05,-611.43 154.13,-605.71 152.52,-612.52"/>
</a>
</g>
</g>
<!-- Node5 -->
<g id="Node000005" class="node">
<title>Node5</title>
<g id="a_Node000005"><a xlink:href="group__ina219__interface__driver.html#gad3a806fbff0baa6c10be7da746a154a4" target="_top" xlink:title="interface print format data">
<polygon fill="white" stroke="#666666" points="255.5,-586 136.75,-586 136.75,-554 255.5,-554 255.5,-586"/>
<text xml:space="preserve" text-anchor="start" x="144.75" y="-572.5" font-family="Helvetica,sans-Serif" font-size="10.00">ina219_interface_debug</text>
<text xml:space="preserve" text-anchor="middle" x="196.12" y="-560.5" font-family="Helvetica,sans-Serif" font-size="10.00">_print</text>
</a>
</g>
</g>
<!-- Node1&#45;&gt;Node5 -->
<g id="edge4_Node000001_Node000005" class="edge">
<title>Node1&#45;&gt;Node5</title>
<g id="a_edge4_Node000001_Node000005"><a xlink:title=" ">
<path fill="none" stroke="#63b8ff" d="M47.96,-366.21C52.95,-397.48 72.19,-492.91 127,-545 127.76,-545.72 128.54,-546.42 129.34,-547.1"/>
<polygon fill="#63b8ff" stroke="#63b8ff" points="127.19,-549.87 137.37,-552.79 131.23,-544.15 127.19,-549.87"/>
</a>
</g>
</g>
<!-- Node6 -->
<g id="Node000006" class="node">
<title>Node6</title>
<g id="a_Node000006"><a xlink:href="group__ina219__interface__driver.html#ga633e3559e78e959bf6e9fca3354c6241" target="_top" xlink:title="interface delay ms">
<polygon fill="white" stroke="#666666" points="263.38,-536 128.88,-536 128.88,-516 263.38,-516 263.38,-536"/>
<text xml:space="preserve" text-anchor="middle" x="196.12" y="-522.5" font-family="Helvetica,sans-Serif" font-size="10.00">ina219_interface_delay_ms</text>
</a>
</g>
</g>
<!-- Node1&#45;&gt;Node6 -->
<g id="edge5_Node000001_Node000006" class="edge">
<title>Node1&#45;&gt;Node6</title>
<g id="a_edge5_Node000001_Node000006"><a xlink:title=" ">
<path fill="none" stroke="#63b8ff" d="M48.95,-366.25C56.01,-393.53 79.05,-468.5 127,-507 128.48,-508.19 130.03,-509.3 131.64,-510.35"/>
<polygon fill="#63b8ff" stroke="#63b8ff" points="129.56,-513.21 140.02,-514.88 132.89,-507.05 129.56,-513.21"/>
</a>
</g>
</g>
<!-- Node7 -->
<g id="Node000007" class="node">
<title>Node7</title>
<g id="a_Node000007"><a xlink:href="group__ina219__interface__driver.html#gaff576d82d931190512a41d7e5805a336" target="_top" xlink:title="interface iic bus deinit">
<polygon fill="white" stroke="#666666" points="247.25,-498 145,-498 145,-466 247.25,-466 247.25,-498"/>
<text xml:space="preserve" text-anchor="start" x="153" y="-484.5" font-family="Helvetica,sans-Serif" font-size="10.00">ina219_interface_iic</text>
<text xml:space="preserve" text-anchor="middle" x="196.12" y="-472.5" font-family="Helvetica,sans-Serif" font-size="10.00">_deinit</text>
</a>
</g>
</g>
<!-- Node1&#45;&gt;Node7 -->
<g id="edge6_Node000001_Node000007" class="edge">
<title>Node1&#45;&gt;Node7</title>
<g id="a_edge6_Node000001_Node000007"><a xlink:title=" ">
<path fill="none" stroke="#63b8ff" d="M52.17,-366.43C63.68,-386.67 91.72,-431.56 127,-457 129.45,-458.77 132.05,-460.43 134.73,-461.98"/>
<polygon fill="#63b8ff" stroke="#63b8ff" points="132.93,-464.99 143.42,-466.45 136.13,-458.76 132.93,-464.99"/>
</a>
</g>
</g>
<!-- Node8 -->
<g id="Node000008" class="node">
<title>Node8</title>
<g id="a_Node000008"><a xlink:href="group__ina219__interface__driver.html#ga03559b7fdbc5caff2f4f2e339f5a275d" target="_top" xlink:title="interface iic bus init">
<polygon fill="white" stroke="#666666" points="256.25,-448 136,-448 136,-428 256.25,-428 256.25,-448"/>
<text xml:space="preserve" text-anchor="middle" x="196.12" y="-434.5" font-family="Helvetica,sans-Serif" font-size="10.00">ina219_interface_iic_init</text>
</a>
</g>
</g>
<!-- Node1&#45;&gt;Node8 -->
<g id="edge7_Node000001_Node000008" class="edge">
<title>Node1&#45;&gt;Node8</title>
<g id="a_edge7_Node000001_Node000008"><a xlink:title=" ">
<path fill="none" stroke="#63b8ff" d="M57,-366.48C71.53,-380.42 99.12,-404.91 127,-419 130.45,-420.74 134.07,-422.34 137.79,-423.81"/>
<polygon fill="#63b8ff" stroke="#63b8ff" points="136.38,-427.02 146.97,-427.09 138.73,-420.43 136.38,-427.02"/>
</a>
</g>
</g>
<!-- Node9 -->
<g id="Node000009" class="node">
<title>Node9</title>
<g id="a_Node000009"><a xlink:href="group__ina219__interface__driver.html#ga525b409d9256841bba469d73949b3f72" target="_top" xlink:title="interface iic bus read">
<polygon fill="white" stroke="#666666" points="259.25,-410 133,-410 133,-390 259.25,-390 259.25,-410"/>
<text xml:space="preserve" text-anchor="middle" x="196.12" y="-396.5" font-family="Helvetica,sans-Serif" font-size="10.00">ina219_interface_iic_read</text>
</a>
</g>
</g>
<!-- Node1&#45;&gt;Node9 -->
<g id="edge8_Node000001_Node000009" class="edge">
<title>Node1&#45;&gt;Node9</title>
<g id="a_edge8_Node000001_Node000009"><a xlink:title=" ">
<path fill="none" stroke="#63b8ff" d="M79.33,-366.43C93.9,-371 111.28,-376.37 127,-381 133.19,-382.82 139.7,-384.7 146.15,-386.53"/>
<polygon fill="#63b8ff" stroke="#63b8ff" points="144.85,-389.79 155.42,-389.13 146.74,-383.06 144.85,-389.79"/>
</a>
</g>
</g>
<!-- Node10 -->
<g id="Node000010" class="node">
<title>Node10</title>
<g id="a_Node000010"><a xlink:href="group__ina219__interface__driver.html#ga26fcca03b2b12f20dd3444ec358784dd" target="_top" xlink:title="interface iic bus write">
<polygon fill="white" stroke="#666666" points="247.25,-372 145,-372 145,-340 247.25,-340 247.25,-372"/>
<text xml:space="preserve" text-anchor="start" x="153" y="-358.5" font-family="Helvetica,sans-Serif" font-size="10.00">ina219_interface_iic</text>
<text xml:space="preserve" text-anchor="middle" x="196.12" y="-346.5" font-family="Helvetica,sans-Serif" font-size="10.00">_write</text>
</a>
</g>
</g>
<!-- Node1&#45;&gt;Node10 -->
<g id="edge9_Node000001_Node000010" class="edge">
<title>Node1&#45;&gt;Node10</title>
<g id="a_edge9_Node000001_Node000010"><a xlink:title=" ">
<path fill="none" stroke="#63b8ff" d="M91.5,-356C104.71,-356 119.4,-356 133.46,-356"/>
<polygon fill="#63b8ff" stroke="#63b8ff" points="133.05,-359.5 143.05,-356 133.05,-352.5 133.05,-359.5"/>
</a>
</g>
</g>
<!-- Node11 -->
<g id="Node000011" class="node">
<title>Node11</title>
<g id="a_Node000011"><a xlink:href="group__ina219__basic__driver.html#ga2f2117648266fc7cdfd91b46c5be4bc2" target="_top" xlink:title="set the iic address pin">
<polygon fill="white" stroke="#666666" points="248.75,-322 143.5,-322 143.5,-302 248.75,-302 248.75,-322"/>
<text xml:space="preserve" text-anchor="middle" x="196.12" y="-308.5" font-family="Helvetica,sans-Serif" font-size="10.00">ina219_set_addr_pin</text>
</a>
</g>
</g>
<!-- Node1&#45;&gt;Node11 -->
<g id="edge10_Node000001_Node000011" class="edge">
<title>Node1&#45;&gt;Node11</title>
<g id="a_edge10_Node000001_Node000011"><a xlink:title=" ">
<path fill="none" stroke="#63b8ff" d="M79.33,-345.57C93.9,-341 111.28,-335.63 127,-331 133.19,-329.18 139.7,-327.3 146.15,-325.47"/>
<polygon fill="#63b8ff" stroke="#63b8ff" points="146.74,-328.94 155.42,-322.87 144.85,-322.21 146.74,-328.94"/>
</a>
</g>
</g>
<!-- Node12 -->
<g id="Node000012" class="node">
<title>Node12</title>
<g id="a_Node000012"><a xlink:href="group__ina219__basic__driver.html#gadc7a65dcf1dc6755a2864372e3ac21f4" target="_top" xlink:title="set the bus voltage adc mode">
<polygon fill="white" stroke="#666666" points="256.62,-284 135.62,-284 135.62,-252 256.62,-252 256.62,-284"/>
<text xml:space="preserve" text-anchor="start" x="143.62" y="-270.5" font-family="Helvetica,sans-Serif" font-size="10.00">ina219_set_bus_voltage</text>
<text xml:space="preserve" text-anchor="middle" x="196.12" y="-258.5" font-family="Helvetica,sans-Serif" font-size="10.00">_adc_mode</text>
</a>
</g>
</g>
<!-- Node1&#45;&gt;Node12 -->
<g id="edge11_Node000001_Node000012" class="edge">
<title>Node1&#45;&gt;Node12</title>
<g id="a_edge11_Node000001_Node000012"><a xlink:title=" ">
<path fill="none" stroke="#63b8ff" d="M57.43,-345.61C72.21,-332 99.86,-308.1 127,-293 129.46,-291.63 132,-290.31 134.6,-289.05"/>
<polygon fill="#63b8ff" stroke="#63b8ff" points="135.79,-292.35 143.46,-285.03 132.9,-285.97 135.79,-292.35"/>
</a>
</g>
</g>
<!-- Node13 -->
<g id="Node000013" class="node">
<title>Node13</title>
<g id="a_Node000013"><a xlink:href="group__ina219__basic__driver.html#gaa579a1fc3c1a1e6ae3a40d44b3c7d15a" target="_top" xlink:title="set the bus voltage range">
<polygon fill="white" stroke="#666666" points="256.62,-234 135.62,-234 135.62,-202 256.62,-202 256.62,-234"/>
<text xml:space="preserve" text-anchor="start" x="143.62" y="-220.5" font-family="Helvetica,sans-Serif" font-size="10.00">ina219_set_bus_voltage</text>
<text xml:space="preserve" text-anchor="middle" x="196.12" y="-208.5" font-family="Helvetica,sans-Serif" font-size="10.00">_range</text>
</a>
</g>
</g>
<!-- Node1&#45;&gt;Node13 -->
<g id="edge12_Node000001_Node000013" class="edge">
<title>Node1&#45;&gt;Node13</title>
<g id="a_edge12_Node000001_Node000013"><a xlink:title=" ">
<path fill="none" stroke="#63b8ff" d="M51.19,-345.68C61.66,-323.71 89.08,-271.93 127,-243 128.31,-242 129.67,-241.03 131.07,-240.1"/>
<polygon fill="#63b8ff" stroke="#63b8ff" points="132.54,-243.3 139.41,-235.24 129.01,-237.25 132.54,-243.3"/>
</a>
</g>
</g>
<!-- Node14 -->
<g id="Node000014" class="node">
<title>Node14</title>
<g id="a_Node000014"><a xlink:href="group__ina219__basic__driver.html#ga8906bafc7897641ce3095f27953d2b86" target="_top" xlink:title="set the calibration">
<polygon fill="white" stroke="#666666" points="252.5,-184 139.75,-184 139.75,-164 252.5,-164 252.5,-184"/>
<text xml:space="preserve" text-anchor="middle" x="196.12" y="-170.5" font-family="Helvetica,sans-Serif" font-size="10.00">ina219_set_calibration</text>
</a>
</g>
</g>
<!-- Node1&#45;&gt;Node14 -->
<g id="edge13_Node000001_Node000014" class="edge">
<title>Node1&#45;&gt;Node14</title>
<g id="a_edge13_Node000001_Node000014"><a xlink:title=" ">
<path fill="none" stroke="#63b8ff" d="M48.51,-345.79C54.7,-317.1 76.21,-235.09 127,-193 128.3,-191.92 129.66,-190.91 131.06,-189.95"/>
<polygon fill="#63b8ff" stroke="#63b8ff" points="132.58,-193.11 139.58,-185.16 129.15,-187.01 132.58,-193.11"/>
</a>
</g>
</g>
<!-- Node15 -->
<g id="Node000015" class="node">
<title>Node15</title>
<g id="a_Node000015"><a xlink:href="group__ina219__basic__driver.html#ga9fad328d2678627e6bdc5164c39746fc" target="_top" xlink:title="set the mode">
<polygon fill="white" stroke="#666666" points="242.38,-146 149.88,-146 149.88,-126 242.38,-126 242.38,-146"/>
<text xml:space="preserve" text-anchor="middle" x="196.12" y="-132.5" font-family="Helvetica,sans-Serif" font-size="10.00">ina219_set_mode</text>
</a>
</g>
</g>
<!-- Node1&#45;&gt;Node15 -->
<g id="edge14_Node000001_Node000015" class="edge">
<title>Node1&#45;&gt;Node15</title>
<g id="a_edge14_Node000001_Node000015"><a xlink:title=" ">
<path fill="none" stroke="#63b8ff" d="M47.45,-345.88C51.09,-313.08 67.11,-208.7 127,-155 130.6,-151.77 134.7,-149.09 139.07,-146.86"/>
<polygon fill="#63b8ff" stroke="#63b8ff" points="140.37,-150.11 148.23,-143.01 137.66,-143.65 140.37,-150.11"/>
</a>
</g>
</g>
<!-- Node16 -->
<g id="Node000016" class="node">
<title>Node16</title>
<g id="a_Node000016"><a xlink:href="group__ina219__basic__driver.html#gaa090c3169c091c7e9f05baba85121ddf" target="_top" xlink:title="set the pga">
<polygon fill="white" stroke="#666666" points="238.25,-108 154,-108 154,-88 238.25,-88 238.25,-108"/>
<text xml:space="preserve" text-anchor="middle" x="196.12" y="-94.5" font-family="Helvetica,sans-Serif" font-size="10.00">ina219_set_pga</text>
</a>
</g>
</g>
<!-- Node1&#45;&gt;Node16 -->
<g id="edge15_Node000001_Node000016" class="edge">
<title>Node1&#45;&gt;Node16</title>
<g id="a_edge15_Node000001_Node000016"><a xlink:title=" ">
<path fill="none" stroke="#63b8ff" d="M46.74,-345.6C48.16,-308.65 58.06,-182.38 127,-117 131.57,-112.67 137.03,-109.31 142.86,-106.71"/>
<polygon fill="#63b8ff" stroke="#63b8ff" points="143.99,-110.02 152.19,-103.32 141.6,-103.44 143.99,-110.02"/>
</a>
</g>
</g>
<!-- Node17 -->
<g id="Node000017" class="node">
<title>Node17</title>
<g id="a_Node000017"><a xlink:href="group__ina219__basic__driver.html#gab89c76823549388469fe5139477b540d" target="_top" xlink:title="set the resistance">
<polygon fill="white" stroke="#666666" points="252.88,-70 139.38,-70 139.38,-50 252.88,-50 252.88,-70"/>
<text xml:space="preserve" text-anchor="middle" x="196.12" y="-56.5" font-family="Helvetica,sans-Serif" font-size="10.00">ina219_set_resistance</text>
</a>
</g>
</g>
<!-- Node1&#45;&gt;Node17 -->
<g id="edge16_Node000001_Node000017" class="edge">
<title>Node1&#45;&gt;Node17</title>
<g id="a_edge16_Node000001_Node000017"><a xlink:title=" ">
<path fill="none" stroke="#63b8ff" d="M46.18,-345.7C45.52,-305.36 48.67,-156.48 127,-79 127.87,-78.14 128.78,-77.31 129.72,-76.52"/>
<polygon fill="#63b8ff" stroke="#63b8ff" points="131.3,-79.68 137.67,-71.22 127.41,-73.86 131.3,-79.68"/>
</a>
</g>
</g>
<!-- Node18 -->
<g id="Node000018" class="node">
<title>Node18</title>
<g id="a_Node000018"><a xlink:href="group__ina219__basic__driver.html#ga3cf4c62c99d022801b44196e8a8d87ac" target="_top" xlink:title="set the shunt voltage adc mode">
<polygon fill="white" stroke="#666666" points="260.75,-32 131.5,-32 131.5,0 260.75,0 260.75,-32"/>
<text xml:space="preserve" text-anchor="start" x="139.5" y="-18.5" font-family="Helvetica,sans-Serif" font-size="10.00">ina219_set_shunt_voltage</text>
<text xml:space="preserve" text-anchor="middle" x="196.12" y="-6.5" font-family="Helvetica,sans-Serif" font-size="10.00">_adc_mode</text>
</a>
</g>
</g>
<!-- Node1&#45;&gt;Node18 -->
<g id="edge17_Node000001_Node000018" class="edge">
<title>Node1&#45;&gt;Node18</title>
<g id="a_edge17_Node000001_Node000018"><a xlink:title=" ">
<path fill="none" stroke="#63b8ff" d="M47.84,-345.66C54.37,-296.67 84.34,-88.23 127,-41 127.46,-40.49 127.94,-39.99 128.42,-39.5"/>
<polygon fill="#63b8ff" stroke="#63b8ff" points="130.39,-42.41 135.91,-33.37 125.95,-36.99 130.39,-42.41"/>
</a>
</g>
</g>
</g>
</svg>
