<?xml version="1.0" encoding="UTF-8" standalone="no"?>
<!DOCTYPE svg PUBLIC "-//W3C//DTD SVG 1.1//EN"
 "http://www.w3.org/Graphics/SVG/1.1/DTD/svg11.dtd">
<!-- Generated by graphviz version 13.1.0 (20250701.0955)
 -->
<!-- Title: ina219_basic_read Pages: 1 -->
<svg width="267pt" height="104pt"
 viewBox="0.00 0.00 267.00 104.00" xmlns="http://www.w3.org/2000/svg" xmlns:xlink="http://www.w3.org/1999/xlink">
<g id="graph0" class="graph" transform="scale(1 1) rotate(0) translate(4 100)">
<title>ina219_basic_read</title>
<!-- Node1 -->
<g id="Node000001" class="node">
<title>Node1</title>
<g id="a_Node000001"><a xlink:title="basic example read">
<polygon fill="#999999" stroke="#666666" points="97,-58 0,-58 0,-38 97,-38 97,-58"/>
<text xml:space="preserve" text-anchor="middle" x="48.5" y="-44.5" font-family="Helvetica,sans-Serif" font-size="10.00">ina219_basic_read</text>
</a>
</g>
</g>
<!-- Node2 -->
<g id="Node000002" class="node">
<title>Node2</title>
<g id="a_Node000002"><a xlink:href="group__ina219__basic__driver.html#gaa5bde368c23162a9a01320ad67f946f7" target="_top" xlink:title="read the bus voltage">
<polygon fill="white" stroke="#666666" points="259.25,-96 133,-96 133,-76 259.25,-76 259.25,-96"/>
<text xml:space="preserve" text-anchor="middle" x="196.12" y="-82.5" font-family="Helvetica,sans-Serif" font-size="10.00">ina219_read_bus_voltage</text>
</a>
</g>
</g>
<!-- Node1&#45;&gt;Node2 -->
<g id="edge1_Node000001_Node000002" class="edge">
<title>Node1&#45;&gt;Node2</title>
<g id="a_edge1_Node000001_Node000002"><a xlink:title=" ">
<path fill="none" stroke="#63b8ff" d="M89.68,-58.48C106.47,-62.87 126.18,-68.01 143.99,-72.66"/>
<polygon fill="#63b8ff" stroke="#63b8ff" points="143.05,-76.03 153.61,-75.17 144.82,-69.26 143.05,-76.03"/>
</a>
</g>
</g>
<!-- Node3 -->
<g id="Node000003" class="node">
<title>Node3</title>
<g id="a_Node000003"><a xlink:href="group__ina219__basic__driver.html#gab094991633ade0f8ed2940c345a4b0e3" target="_top" xlink:title="read the current">
<polygon fill="white" stroke="#666666" points="248,-58 144.25,-58 144.25,-38 248,-38 248,-58"/>
<text xml:space="preserve" text-anchor="middle" x="196.12" y="-44.5" font-family="Helvetica,sans-Serif" font-size="10.00">ina219_read_current</text>
</a>
</g>
</g>
<!-- Node1&#45;&gt;Node3 -->
<g id="edge2_Node000001_Node000003" class="edge">
<title>Node1&#45;&gt;Node3</title>
<g id="a_edge2_Node000001_Node000003"><a xlink:title=" ">
<path fill="none" stroke="#63b8ff" d="M97.18,-48C108.5,-48 120.74,-48 132.6,-48"/>
<polygon fill="#63b8ff" stroke="#63b8ff" points="132.31,-51.5 142.31,-48 132.31,-44.5 132.31,-51.5"/>
</a>
</g>
</g>
<!-- Node4 -->
<g id="Node000004" class="node">
<title>Node4</title>
<g id="a_Node000004"><a xlink:href="group__ina219__basic__driver.html#gafeea7b3dfe11a07302221e8ba300a54a" target="_top" xlink:title="read the power">
<polygon fill="white" stroke="#666666" points="246.12,-20 146.12,-20 146.12,0 246.12,0 246.12,-20"/>
<text xml:space="preserve" text-anchor="middle" x="196.12" y="-6.5" font-family="Helvetica,sans-Serif" font-size="10.00">ina219_read_power</text>
</a>
</g>
</g>
<!-- Node1&#45;&gt;Node4 -->
<g id="edge3_Node000001_Node000004" class="edge">
<title>Node1&#45;&gt;Node4</title>
<g id="a_edge3_Node000001_Node000004"><a xlink:title=" ">
<path fill="none" stroke="#63b8ff" d="M89.68,-37.52C106.47,-33.13 126.18,-27.99 143.99,-23.34"/>
<polygon fill="#63b8ff" stroke="#63b8ff" points="144.82,-26.74 153.61,-20.83 143.05,-19.97 144.82,-26.74"/>
</a>
</g>
</g>
</g>
</svg>
