<?xml version="1.0" encoding="UTF-8" standalone="no"?>
<!DOCTYPE svg PUBLIC "-//W3C//DTD SVG 1.1//EN"
 "http://www.w3.org/Graphics/SVG/1.1/DTD/svg11.dtd">
<!-- Generated by graphviz version 13.1.0 (20250701.0955)
 -->
<!-- Title: ina219_shot_read Pages: 1 -->
<svg width="263pt" height="142pt"
 viewBox="0.00 0.00 263.00 142.00" xmlns="http://www.w3.org/2000/svg" xmlns:xlink="http://www.w3.org/1999/xlink">
<g id="graph0" class="graph" transform="scale(1 1) rotate(0) translate(4 138)">
<title>ina219_shot_read</title>
<!-- Node1 -->
<g id="Node000001" class="node">
<title>Node1</title>
<g id="a_Node000001"><a xlink:title="shot example read">
<polygon fill="#999999" stroke="#666666" points="92.5,-77 0,-77 0,-57 92.5,-57 92.5,-77"/>
<text xml:space="preserve" text-anchor="middle" x="46.25" y="-63.5" font-family="Helvetica,sans-Serif" font-size="10.00">ina219_shot_read</text>
</a>
</g>
</g>
<!-- Node2 -->
<g id="Node000002" class="node">
<title>Node2</title>
<g id="a_Node000002"><a xlink:href="group__ina219__basic__driver.html#gaa5bde368c23162a9a01320ad67f946f7" target="_top" xlink:title="read the bus voltage">
<polygon fill="white" stroke="#666666" points="254.75,-134 128.5,-134 128.5,-114 254.75,-114 254.75,-134"/>
<text xml:space="preserve" text-anchor="middle" x="191.62" y="-120.5" font-family="Helvetica,sans-Serif" font-size="10.00">ina219_read_bus_voltage</text>
</a>
</g>
</g>
<!-- Node1&#45;&gt;Node2 -->
<g id="edge1_Node000001_Node000002" class="edge">
<title>Node1&#45;&gt;Node2</title>
<g id="a_edge1_Node000001_Node000002"><a xlink:title=" ">
<path fill="none" stroke="#63b8ff" d="M67.61,-77.5C83.84,-85.63 107.28,-96.84 128.5,-105 133.13,-106.78 137.99,-108.51 142.88,-110.15"/>
<polygon fill="#63b8ff" stroke="#63b8ff" points="141.51,-113.38 152.1,-113.13 143.66,-106.72 141.51,-113.38"/>
</a>
</g>
</g>
<!-- Node3 -->
<g id="Node000003" class="node">
<title>Node3</title>
<g id="a_Node000003"><a xlink:href="group__ina219__basic__driver.html#gab094991633ade0f8ed2940c345a4b0e3" target="_top" xlink:title="read the current">
<polygon fill="white" stroke="#666666" points="243.5,-96 139.75,-96 139.75,-76 243.5,-76 243.5,-96"/>
<text xml:space="preserve" text-anchor="middle" x="191.62" y="-82.5" font-family="Helvetica,sans-Serif" font-size="10.00">ina219_read_current</text>
</a>
</g>
</g>
<!-- Node1&#45;&gt;Node3 -->
<g id="edge2_Node000001_Node000003" class="edge">
<title>Node1&#45;&gt;Node3</title>
<g id="a_edge2_Node000001_Node000003"><a xlink:title=" ">
<path fill="none" stroke="#63b8ff" d="M92.61,-73.01C103.87,-74.5 116.13,-76.13 128.04,-77.71"/>
<polygon fill="#63b8ff" stroke="#63b8ff" points="127.45,-81.16 137.82,-79 128.36,-74.22 127.45,-81.16"/>
</a>
</g>
</g>
<!-- Node4 -->
<g id="Node000004" class="node">
<title>Node4</title>
<g id="a_Node000004"><a xlink:href="group__ina219__basic__driver.html#gafeea7b3dfe11a07302221e8ba300a54a" target="_top" xlink:title="read the power">
<polygon fill="white" stroke="#666666" points="241.62,-58 141.62,-58 141.62,-38 241.62,-38 241.62,-58"/>
<text xml:space="preserve" text-anchor="middle" x="191.62" y="-44.5" font-family="Helvetica,sans-Serif" font-size="10.00">ina219_read_power</text>
</a>
</g>
</g>
<!-- Node1&#45;&gt;Node4 -->
<g id="edge3_Node000001_Node000004" class="edge">
<title>Node1&#45;&gt;Node4</title>
<g id="a_edge3_Node000001_Node000004"><a xlink:title=" ">
<path fill="none" stroke="#63b8ff" d="M92.61,-60.99C104.49,-59.42 117.48,-57.69 130,-56.03"/>
<polygon fill="#63b8ff" stroke="#63b8ff" points="130.38,-59.51 139.83,-54.73 129.46,-52.58 130.38,-59.51"/>
</a>
</g>
</g>
<!-- Node5 -->
<g id="Node000005" class="node">
<title>Node5</title>
<g id="a_Node000005"><a xlink:href="group__ina219__basic__driver.html#ga9fad328d2678627e6bdc5164c39746fc" target="_top" xlink:title="set the mode">
<polygon fill="white" stroke="#666666" points="237.88,-20 145.38,-20 145.38,0 237.88,0 237.88,-20"/>
<text xml:space="preserve" text-anchor="middle" x="191.62" y="-6.5" font-family="Helvetica,sans-Serif" font-size="10.00">ina219_set_mode</text>
</a>
</g>
</g>
<!-- Node1&#45;&gt;Node5 -->
<g id="edge4_Node000001_Node000005" class="edge">
<title>Node1&#45;&gt;Node5</title>
<g id="a_edge4_Node000001_Node000005"><a xlink:title=" ">
<path fill="none" stroke="#63b8ff" d="M67.61,-56.5C83.84,-48.37 107.28,-37.16 128.5,-29 133.13,-27.22 137.99,-25.49 142.88,-23.85"/>
<polygon fill="#63b8ff" stroke="#63b8ff" points="143.66,-27.28 152.1,-20.87 141.51,-20.62 143.66,-27.28"/>
</a>
</g>
</g>
</g>
</svg>
