<?xml version="1.0" encoding="UTF-8" standalone="no"?>
<!DOCTYPE svg PUBLIC "-//W3C//DTD SVG 1.1//EN"
 "http://www.w3.org/Graphics/SVG/1.1/DTD/svg11.dtd">
<!-- Generated by graphviz version 13.1.0 (20250701.0955)
 -->
<!-- Title: ina219_shot_init Pages: 1 -->
<svg width="269pt" height="670pt"
 viewBox="0.00 0.00 269.00 670.00" xmlns="http://www.w3.org/2000/svg" xmlns:xlink="http://www.w3.org/1999/xlink">
<g id="graph0" class="graph" transform="scale(1 1) rotate(0) translate(4 666)">
<title>ina219_shot_init</title>
<!-- Node1 -->
<g id="Node000001" class="node">
<title>Node1</title>
<g id="a_Node000001"><a xlink:title="shot example init">
<polygon fill="#999999" stroke="#666666" points="86.5,-350 0,-350 0,-330 86.5,-330 86.5,-350"/>
<text xml:space="preserve" text-anchor="middle" x="43.25" y="-336.5" font-family="Helvetica,sans-Serif" font-size="10.00">ina219_shot_init</text>
</a>
</g>
</g>
<!-- Node2 -->
<g id="Node000002" class="node">
<title>Node2</title>
<g id="a_Node000002"><a xlink:href="group__ina219__basic__driver.html#gab601b31d458b5ee7ba0229e7a4126fe9" target="_top" xlink:title="calculate the calibration">
<polygon fill="white" stroke="#666666" points="260.75,-662 122.5,-662 122.5,-642 260.75,-642 260.75,-662"/>
<text xml:space="preserve" text-anchor="middle" x="191.62" y="-648.5" font-family="Helvetica,sans-Serif" font-size="10.00">ina219_calculate_calibration</text>
</a>
</g>
</g>
<!-- Node1&#45;&gt;Node2 -->
<g id="edge1_Node000001_Node000002" class="edge">
<title>Node1&#45;&gt;Node2</title>
<g id="a_edge1_Node000001_Node000002"><a xlink:title=" ">
<path fill="none" stroke="#63b8ff" d="M45.62,-350.31C52.09,-397.33 80.94,-590.98 122.5,-633 123.24,-633.74 124,-634.46 124.79,-635.15"/>
<polygon fill="#63b8ff" stroke="#63b8ff" points="122.56,-637.86 132.77,-640.67 126.54,-632.1 122.56,-637.86"/>
</a>
</g>
</g>
<!-- Node3 -->
<g id="Node000003" class="node">
<title>Node3</title>
<g id="a_Node000003"><a xlink:href="group__ina219__basic__driver.html#ga981f9175a85d77eda3e8895ba127fc0c" target="_top" xlink:title="close the chip">
<polygon fill="white" stroke="#666666" points="228.12,-624 155.12,-624 155.12,-604 228.12,-604 228.12,-624"/>
<text xml:space="preserve" text-anchor="middle" x="191.62" y="-610.5" font-family="Helvetica,sans-Serif" font-size="10.00">ina219_deinit</text>
</a>
</g>
</g>
<!-- Node1&#45;&gt;Node3 -->
<g id="edge2_Node000001_Node000003" class="edge">
<title>Node1&#45;&gt;Node3</title>
<g id="a_edge2_Node000001_Node000003"><a xlink:title=" ">
<path fill="none" stroke="#63b8ff" d="M44.13,-350.27C44.27,-388.55 50.04,-524.38 122.5,-595 128.42,-600.77 135.95,-604.82 143.82,-607.66"/>
<polygon fill="#63b8ff" stroke="#63b8ff" points="142.62,-610.96 153.2,-610.39 144.58,-604.23 142.62,-610.96"/>
</a>
</g>
</g>
<!-- Node4 -->
<g id="Node000004" class="node">
<title>Node4</title>
<g id="a_Node000004"><a xlink:href="group__ina219__basic__driver.html#gab71760c2cdbe731a214cbce4feb065ba" target="_top" xlink:title="initialize the chip">
<polygon fill="white" stroke="#666666" points="222.88,-586 160.38,-586 160.38,-566 222.88,-566 222.88,-586"/>
<text xml:space="preserve" text-anchor="middle" x="191.62" y="-572.5" font-family="Helvetica,sans-Serif" font-size="10.00">ina219_init</text>
</a>
</g>
</g>
<!-- Node1&#45;&gt;Node4 -->
<g id="edge3_Node000001_Node000004" class="edge">
<title>Node1&#45;&gt;Node4</title>
<g id="a_edge3_Node000001_Node000004"><a xlink:title=" ">
<path fill="none" stroke="#63b8ff" d="M44.77,-350.41C47.1,-385.18 59.4,-498.41 122.5,-557 129.81,-563.79 139.34,-568.18 148.94,-571.01"/>
<polygon fill="#63b8ff" stroke="#63b8ff" points="148.11,-574.41 158.65,-573.32 149.73,-567.6 148.11,-574.41"/>
</a>
</g>
</g>
<!-- Node5 -->
<g id="Node000005" class="node">
<title>Node5</title>
<g id="a_Node000005"><a xlink:href="group__ina219__interface__driver.html#gad3a806fbff0baa6c10be7da746a154a4" target="_top" xlink:title="interface print format data">
<polygon fill="white" stroke="#666666" points="251,-548 132.25,-548 132.25,-516 251,-516 251,-548"/>
<text xml:space="preserve" text-anchor="start" x="140.25" y="-534.5" font-family="Helvetica,sans-Serif" font-size="10.00">ina219_interface_debug</text>
<text xml:space="preserve" text-anchor="middle" x="191.62" y="-522.5" font-family="Helvetica,sans-Serif" font-size="10.00">_print</text>
</a>
</g>
</g>
<!-- Node1&#45;&gt;Node5 -->
<g id="edge4_Node000001_Node000005" class="edge">
<title>Node1&#45;&gt;Node5</title>
<g id="a_edge4_Node000001_Node000005"><a xlink:title=" ">
<path fill="none" stroke="#63b8ff" d="M46.21,-350.25C52.24,-379.08 73.18,-461.77 122.5,-507 123.27,-507.71 124.07,-508.4 124.88,-509.07"/>
<polygon fill="#63b8ff" stroke="#63b8ff" points="122.77,-511.86 132.99,-514.67 126.75,-506.1 122.77,-511.86"/>
</a>
</g>
</g>
<!-- Node6 -->
<g id="Node000006" class="node">
<title>Node6</title>
<g id="a_Node000006"><a xlink:href="group__ina219__interface__driver.html#ga633e3559e78e959bf6e9fca3354c6241" target="_top" xlink:title="interface delay ms">
<polygon fill="white" stroke="#666666" points="258.88,-498 124.38,-498 124.38,-478 258.88,-478 258.88,-498"/>
<text xml:space="preserve" text-anchor="middle" x="191.62" y="-484.5" font-family="Helvetica,sans-Serif" font-size="10.00">ina219_interface_delay_ms</text>
</a>
</g>
</g>
<!-- Node1&#45;&gt;Node6 -->
<g id="edge5_Node000001_Node000006" class="edge">
<title>Node1&#45;&gt;Node6</title>
<g id="a_edge5_Node000001_Node000006"><a xlink:title=" ">
<path fill="none" stroke="#63b8ff" d="M47.47,-350.17C55.75,-374.58 80.13,-436.87 122.5,-469 124.05,-470.17 125.66,-471.27 127.33,-472.31"/>
<polygon fill="#63b8ff" stroke="#63b8ff" points="125.56,-475.33 136.05,-476.81 128.77,-469.11 125.56,-475.33"/>
</a>
</g>
</g>
<!-- Node7 -->
<g id="Node000007" class="node">
<title>Node7</title>
<g id="a_Node000007"><a xlink:href="group__ina219__interface__driver.html#gaff576d82d931190512a41d7e5805a336" target="_top" xlink:title="interface iic bus deinit">
<polygon fill="white" stroke="#666666" points="242.75,-460 140.5,-460 140.5,-428 242.75,-428 242.75,-460"/>
<text xml:space="preserve" text-anchor="start" x="148.5" y="-446.5" font-family="Helvetica,sans-Serif" font-size="10.00">ina219_interface_iic</text>
<text xml:space="preserve" text-anchor="middle" x="191.62" y="-434.5" font-family="Helvetica,sans-Serif" font-size="10.00">_deinit</text>
</a>
</g>
</g>
<!-- Node1&#45;&gt;Node7 -->
<g id="edge6_Node000001_Node000007" class="edge">
<title>Node1&#45;&gt;Node7</title>
<g id="a_edge6_Node000001_Node000007"><a xlink:title=" ">
<path fill="none" stroke="#63b8ff" d="M52.03,-350.41C64.97,-367.04 92.45,-399.7 122.5,-419 124.91,-420.55 127.43,-422.02 130.02,-423.41"/>
<polygon fill="#63b8ff" stroke="#63b8ff" points="128.41,-426.52 138.93,-427.76 131.48,-420.23 128.41,-426.52"/>
</a>
</g>
</g>
<!-- Node8 -->
<g id="Node000008" class="node">
<title>Node8</title>
<g id="a_Node000008"><a xlink:href="group__ina219__interface__driver.html#ga03559b7fdbc5caff2f4f2e339f5a275d" target="_top" xlink:title="interface iic bus init">
<polygon fill="white" stroke="#666666" points="251.75,-410 131.5,-410 131.5,-390 251.75,-390 251.75,-410"/>
<text xml:space="preserve" text-anchor="middle" x="191.62" y="-396.5" font-family="Helvetica,sans-Serif" font-size="10.00">ina219_interface_iic_init</text>
</a>
</g>
</g>
<!-- Node1&#45;&gt;Node8 -->
<g id="edge7_Node000001_Node000008" class="edge">
<title>Node1&#45;&gt;Node8</title>
<g id="a_edge7_Node000001_Node000008"><a xlink:title=" ">
<path fill="none" stroke="#63b8ff" d="M61.46,-350.37C77,-359.4 100.69,-372.35 122.5,-381 127.19,-382.86 132.12,-384.61 137.1,-386.24"/>
<polygon fill="#63b8ff" stroke="#63b8ff" points="135.98,-389.55 146.57,-389.16 138.04,-382.86 135.98,-389.55"/>
</a>
</g>
</g>
<!-- Node9 -->
<g id="Node000009" class="node">
<title>Node9</title>
<g id="a_Node000009"><a xlink:href="group__ina219__interface__driver.html#ga525b409d9256841bba469d73949b3f72" target="_top" xlink:title="interface iic bus read">
<polygon fill="white" stroke="#666666" points="254.75,-372 128.5,-372 128.5,-352 254.75,-352 254.75,-372"/>
<text xml:space="preserve" text-anchor="middle" x="191.62" y="-358.5" font-family="Helvetica,sans-Serif" font-size="10.00">ina219_interface_iic_read</text>
</a>
</g>
</g>
<!-- Node1&#45;&gt;Node9 -->
<g id="edge8_Node000001_Node000009" class="edge">
<title>Node1&#45;&gt;Node9</title>
<g id="a_edge8_Node000001_Node000009"><a xlink:title=" ">
<path fill="none" stroke="#63b8ff" d="M86.98,-346.42C96.46,-347.85 106.77,-349.4 117.09,-350.95"/>
<polygon fill="#63b8ff" stroke="#63b8ff" points="116.35,-354.38 126.76,-352.4 117.39,-347.45 116.35,-354.38"/>
</a>
</g>
</g>
<!-- Node10 -->
<g id="Node000010" class="node">
<title>Node10</title>
<g id="a_Node000010"><a xlink:href="group__ina219__interface__driver.html#ga26fcca03b2b12f20dd3444ec358784dd" target="_top" xlink:title="interface iic bus write">
<polygon fill="white" stroke="#666666" points="242.75,-334 140.5,-334 140.5,-302 242.75,-302 242.75,-334"/>
<text xml:space="preserve" text-anchor="start" x="148.5" y="-320.5" font-family="Helvetica,sans-Serif" font-size="10.00">ina219_interface_iic</text>
<text xml:space="preserve" text-anchor="middle" x="191.62" y="-308.5" font-family="Helvetica,sans-Serif" font-size="10.00">_write</text>
</a>
</g>
</g>
<!-- Node1&#45;&gt;Node10 -->
<g id="edge9_Node000001_Node000010" class="edge">
<title>Node1&#45;&gt;Node10</title>
<g id="a_edge9_Node000001_Node000010"><a xlink:title=" ">
<path fill="none" stroke="#63b8ff" d="M86.98,-333.58C100.1,-331.61 114.8,-329.4 128.92,-327.27"/>
<polygon fill="#63b8ff" stroke="#63b8ff" points="129.22,-330.77 138.59,-325.82 128.18,-323.85 129.22,-330.77"/>
</a>
</g>
</g>
<!-- Node11 -->
<g id="Node000011" class="node">
<title>Node11</title>
<g id="a_Node000011"><a xlink:href="group__ina219__basic__driver.html#ga2f2117648266fc7cdfd91b46c5be4bc2" target="_top" xlink:title="set the iic address pin">
<polygon fill="white" stroke="#666666" points="244.25,-284 139,-284 139,-264 244.25,-264 244.25,-284"/>
<text xml:space="preserve" text-anchor="middle" x="191.62" y="-270.5" font-family="Helvetica,sans-Serif" font-size="10.00">ina219_set_addr_pin</text>
</a>
</g>
</g>
<!-- Node1&#45;&gt;Node11 -->
<g id="edge10_Node000001_Node000011" class="edge">
<title>Node1&#45;&gt;Node11</title>
<g id="a_edge10_Node000001_Node000011"><a xlink:title=" ">
<path fill="none" stroke="#63b8ff" d="M58.9,-329.55C74.16,-319.08 99.06,-303.09 122.5,-293 126.75,-291.17 131.23,-289.47 135.77,-287.89"/>
<polygon fill="#63b8ff" stroke="#63b8ff" points="136.53,-291.33 144.97,-284.92 134.38,-284.66 136.53,-291.33"/>
</a>
</g>
</g>
<!-- Node12 -->
<g id="Node000012" class="node">
<title>Node12</title>
<g id="a_Node000012"><a xlink:href="group__ina219__basic__driver.html#gadc7a65dcf1dc6755a2864372e3ac21f4" target="_top" xlink:title="set the bus voltage adc mode">
<polygon fill="white" stroke="#666666" points="252.12,-246 131.12,-246 131.12,-214 252.12,-214 252.12,-246"/>
<text xml:space="preserve" text-anchor="start" x="139.12" y="-232.5" font-family="Helvetica,sans-Serif" font-size="10.00">ina219_set_bus_voltage</text>
<text xml:space="preserve" text-anchor="middle" x="191.62" y="-220.5" font-family="Helvetica,sans-Serif" font-size="10.00">_adc_mode</text>
</a>
</g>
</g>
<!-- Node1&#45;&gt;Node12 -->
<g id="edge11_Node000001_Node000012" class="edge">
<title>Node1&#45;&gt;Node12</title>
<g id="a_edge11_Node000001_Node000012"><a xlink:title=" ">
<path fill="none" stroke="#63b8ff" d="M51.24,-329.63C63.64,-311.97 91.15,-275.96 122.5,-255 124.31,-253.79 126.18,-252.63 128.1,-251.52"/>
<polygon fill="#63b8ff" stroke="#63b8ff" points="129.43,-254.78 136.69,-247.06 126.2,-248.56 129.43,-254.78"/>
</a>
</g>
</g>
<!-- Node13 -->
<g id="Node000013" class="node">
<title>Node13</title>
<g id="a_Node000013"><a xlink:href="group__ina219__basic__driver.html#gaa579a1fc3c1a1e6ae3a40d44b3c7d15a" target="_top" xlink:title="set the bus voltage range">
<polygon fill="white" stroke="#666666" points="252.12,-196 131.12,-196 131.12,-164 252.12,-164 252.12,-196"/>
<text xml:space="preserve" text-anchor="start" x="139.12" y="-182.5" font-family="Helvetica,sans-Serif" font-size="10.00">ina219_set_bus_voltage</text>
<text xml:space="preserve" text-anchor="middle" x="191.62" y="-170.5" font-family="Helvetica,sans-Serif" font-size="10.00">_range</text>
</a>
</g>
</g>
<!-- Node1&#45;&gt;Node13 -->
<g id="edge12_Node000001_Node000013" class="edge">
<title>Node1&#45;&gt;Node13</title>
<g id="a_edge12_Node000001_Node000013"><a xlink:title=" ">
<path fill="none" stroke="#63b8ff" d="M47.51,-329.58C55.86,-304.53 80.39,-240.37 122.5,-205 123.59,-204.09 124.71,-203.21 125.86,-202.36"/>
<polygon fill="#63b8ff" stroke="#63b8ff" points="127.36,-205.55 133.93,-197.25 123.61,-199.64 127.36,-205.55"/>
</a>
</g>
</g>
<!-- Node14 -->
<g id="Node000014" class="node">
<title>Node14</title>
<g id="a_Node000014"><a xlink:href="group__ina219__basic__driver.html#ga8906bafc7897641ce3095f27953d2b86" target="_top" xlink:title="set the calibration">
<polygon fill="white" stroke="#666666" points="248,-146 135.25,-146 135.25,-126 248,-126 248,-146"/>
<text xml:space="preserve" text-anchor="middle" x="191.62" y="-132.5" font-family="Helvetica,sans-Serif" font-size="10.00">ina219_set_calibration</text>
</a>
</g>
</g>
<!-- Node1&#45;&gt;Node14 -->
<g id="edge13_Node000001_Node000014" class="edge">
<title>Node1&#45;&gt;Node14</title>
<g id="a_edge13_Node000001_Node000014"><a xlink:title=" ">
<path fill="none" stroke="#63b8ff" d="M45.47,-329.81C49.75,-298.65 66.98,-203.82 122.5,-155 123.59,-154.04 124.72,-153.13 125.89,-152.27"/>
<polygon fill="#63b8ff" stroke="#63b8ff" points="127.45,-155.42 134.22,-147.27 123.84,-149.42 127.45,-155.42"/>
</a>
</g>
</g>
<!-- Node15 -->
<g id="Node000015" class="node">
<title>Node15</title>
<g id="a_Node000015"><a xlink:href="group__ina219__basic__driver.html#gaa090c3169c091c7e9f05baba85121ddf" target="_top" xlink:title="set the pga">
<polygon fill="white" stroke="#666666" points="233.75,-108 149.5,-108 149.5,-88 233.75,-88 233.75,-108"/>
<text xml:space="preserve" text-anchor="middle" x="191.62" y="-94.5" font-family="Helvetica,sans-Serif" font-size="10.00">ina219_set_pga</text>
</a>
</g>
</g>
<!-- Node1&#45;&gt;Node15 -->
<g id="edge14_Node000001_Node000015" class="edge">
<title>Node1&#45;&gt;Node15</title>
<g id="a_edge14_Node000001_Node000015"><a xlink:title=" ">
<path fill="none" stroke="#63b8ff" d="M44.66,-329.56C46.63,-294.15 57.97,-177.44 122.5,-117 127.09,-112.7 132.58,-109.36 138.41,-106.77"/>
<polygon fill="#63b8ff" stroke="#63b8ff" points="139.55,-110.08 147.75,-103.38 137.16,-103.5 139.55,-110.08"/>
</a>
</g>
</g>
<!-- Node16 -->
<g id="Node000016" class="node">
<title>Node16</title>
<g id="a_Node000016"><a xlink:href="group__ina219__basic__driver.html#gab89c76823549388469fe5139477b540d" target="_top" xlink:title="set the resistance">
<polygon fill="white" stroke="#666666" points="248.38,-70 134.88,-70 134.88,-50 248.38,-50 248.38,-70"/>
<text xml:space="preserve" text-anchor="middle" x="191.62" y="-56.5" font-family="Helvetica,sans-Serif" font-size="10.00">ina219_set_resistance</text>
</a>
</g>
</g>
<!-- Node1&#45;&gt;Node16 -->
<g id="edge15_Node000001_Node000016" class="edge">
<title>Node1&#45;&gt;Node16</title>
<g id="a_edge15_Node000001_Node000016"><a xlink:title=" ">
<path fill="none" stroke="#63b8ff" d="M44.05,-329.77C43.86,-290.98 48.54,-151.54 122.5,-79 123.38,-78.14 124.29,-77.32 125.23,-76.53"/>
<polygon fill="#63b8ff" stroke="#63b8ff" points="126.8,-79.69 133.2,-71.25 122.93,-73.86 126.8,-79.69"/>
</a>
</g>
</g>
<!-- Node17 -->
<g id="Node000017" class="node">
<title>Node17</title>
<g id="a_Node000017"><a xlink:href="group__ina219__basic__driver.html#ga3cf4c62c99d022801b44196e8a8d87ac" target="_top" xlink:title="set the shunt voltage adc mode">
<polygon fill="white" stroke="#666666" points="256.25,-32 127,-32 127,0 256.25,0 256.25,-32"/>
<text xml:space="preserve" text-anchor="start" x="135" y="-18.5" font-family="Helvetica,sans-Serif" font-size="10.00">ina219_set_shunt_voltage</text>
<text xml:space="preserve" text-anchor="middle" x="191.62" y="-6.5" font-family="Helvetica,sans-Serif" font-size="10.00">_adc_mode</text>
</a>
</g>
</g>
<!-- Node1&#45;&gt;Node17 -->
<g id="edge16_Node000001_Node000017" class="edge">
<title>Node1&#45;&gt;Node17</title>
<g id="a_edge16_Node000001_Node000017"><a xlink:title=" ">
<path fill="none" stroke="#63b8ff" d="M43.77,-329.68C42.38,-287.83 42.76,-128.77 122.5,-41 122.96,-40.49 123.44,-39.99 123.92,-39.5"/>
<polygon fill="#63b8ff" stroke="#63b8ff" points="125.89,-42.42 131.43,-33.39 121.47,-36.99 125.89,-42.42"/>
</a>
</g>
</g>
</g>
</svg>
